<svg width="285" height="20" viewBox="0 0 285 20" fill="none" xmlns="http://www.w3.org/2000/svg">
<g clip-path="url(#clip0_461_9075)">
<path d="M144.364 15.456C144.048 16.1762 143.601 16.7265 143.015 17.1047C142.431 17.4808 141.744 17.6699 140.95 17.6699C139.781 17.6699 138.842 17.2514 138.13 16.4142C137.421 15.5792 137.066 14.3681 137.066 12.7852C137.066 11.725 137.227 10.8326 137.552 10.1165C137.875 9.39626 138.33 8.85233 138.912 8.48263C139.499 8.11505 140.176 7.9302 140.95 7.9302C142.137 7.9302 143.081 8.34452 143.784 9.16891C144.487 9.99755 144.838 11.2023 144.838 12.7852C144.838 13.8475 144.679 14.7378 144.364 15.456ZM146.024 0.15797C145.628 0.15797 145.327 0.262082 145.118 0.46818C144.914 0.676402 144.81 0.986612 144.81 1.39881V8.58886C144.489 7.9132 144.056 7.31191 143.408 6.86359C142.56 6.27929 141.555 5.98608 140.385 5.98608C139.214 5.98608 138.194 6.26229 137.321 6.80835C136.447 7.35865 135.774 8.14055 135.298 9.15616C134.822 10.1739 134.582 11.3829 134.582 12.7852C134.582 14.1726 134.826 15.3816 135.311 16.4142C135.797 17.4511 136.475 18.2415 137.348 18.7896C138.219 19.3378 139.233 19.6119 140.385 19.6119C141.555 19.6119 142.564 19.3166 143.421 18.7217C144.071 18.2691 144.498 17.6593 144.81 16.9666V18.2903C144.81 18.7047 144.919 19.0191 145.133 19.2358C145.35 19.4504 145.645 19.5588 146.024 19.5588C146.421 19.5588 146.725 19.4504 146.941 19.2358C147.156 19.0191 147.264 18.7047 147.264 18.2903V1.39881C147.264 0.986612 147.156 0.676402 146.941 0.46818C146.725 0.262082 146.421 0.15797 146.024 0.15797Z" fill="white"/>
<path d="M158.893 15.9829C158.587 16.5502 158.175 17.0006 157.652 17.3321C157.132 17.6657 156.528 17.8314 155.844 17.8314C154.981 17.8314 154.304 17.6062 153.806 17.1579C153.313 16.7074 153.067 16.1338 153.067 15.4305C153.067 14.8738 153.228 14.4361 153.551 14.1216C153.874 13.8072 154.437 13.5862 155.236 13.4609C156.037 13.3355 157.132 13.2718 158.515 13.2718H159.354V14.026C159.354 14.7654 159.199 15.4177 158.893 15.9829ZM159.46 6.53852C158.704 6.17094 157.744 5.98609 156.573 5.98609C155.891 5.98609 155.156 6.07108 154.374 6.24318C153.592 6.41316 152.806 6.69787 152.013 7.09307C151.76 7.18231 151.584 7.32679 151.486 7.52439C151.388 7.72199 151.342 7.92384 151.352 8.13206C151.361 8.33816 151.422 8.52726 151.541 8.69936C151.658 8.86934 151.816 8.97557 152.013 9.02232C152.211 9.06694 152.444 9.02657 152.716 8.89908C153.398 8.55913 154.053 8.30629 154.684 8.14481C155.313 7.98333 155.925 7.90259 156.52 7.90259C157.544 7.90259 158.273 8.14056 158.704 8.6165C159.135 9.09456 159.354 9.86158 159.354 10.9239V11.708H158.462C156.52 11.708 154.971 11.827 153.821 12.0692C152.67 12.3135 151.85 12.713 151.365 13.2718C150.879 13.8306 150.636 14.5933 150.636 15.5643C150.636 16.3207 150.84 17.0049 151.244 17.6168C151.65 18.2287 152.215 18.7132 152.944 19.0722C153.673 19.4313 154.486 19.6119 155.385 19.6119C156.122 19.6119 156.785 19.4823 157.37 19.221C157.952 18.9618 158.445 18.5878 158.838 18.1013C159.08 17.8059 159.258 17.4638 159.407 17.1005V18.2903C159.407 18.7047 159.509 19.0191 159.717 19.2359C159.923 19.4504 160.206 19.5588 160.567 19.5588C160.945 19.5588 161.23 19.4504 161.43 19.2359C161.628 19.0191 161.727 18.7047 161.727 18.2903V11.1683C161.727 9.98057 161.538 9.0032 161.16 8.24042C160.782 7.47552 160.217 6.90822 159.46 6.53852Z" fill="white"/>
<path d="M172.869 17.3469C172.691 17.3469 172.483 17.3788 172.249 17.4404C172.017 17.5042 171.728 17.536 171.386 17.536C170.432 17.536 169.748 17.2832 169.336 16.7796C168.922 16.2761 168.716 15.5282 168.716 14.5402V8.11927H171.979C172.321 8.11927 172.583 8.03428 172.761 7.86218C172.942 7.69007 173.031 7.46273 173.031 7.17377C173.031 6.86781 172.942 6.63409 172.761 6.47261C172.583 6.31113 172.321 6.22826 171.979 6.22826H168.716V3.28765C168.716 2.87333 168.612 2.56312 168.403 2.35702C168.197 2.15093 167.895 2.04681 167.502 2.04681C167.105 2.04681 166.799 2.15093 166.582 2.35702C166.366 2.56312 166.259 2.87333 166.259 3.28765V6.22826H164.532C164.209 6.22826 163.958 6.31113 163.778 6.47261C163.597 6.63409 163.508 6.86781 163.508 7.17377C163.508 7.46273 163.597 7.69007 163.778 7.86218C163.958 8.03428 164.209 8.11927 164.532 8.11927H166.259V14.7548C166.259 15.798 166.436 16.6798 166.786 17.4C167.137 18.1203 167.668 18.6685 168.378 19.0467C169.09 19.4228 169.973 19.6119 171.036 19.6119C171.323 19.6119 171.648 19.5821 172.007 19.5184C172.368 19.4547 172.653 19.3888 172.869 19.3165C173.103 19.2422 173.263 19.1041 173.343 18.8959C173.424 18.6919 173.462 18.4603 173.462 18.2096C173.462 17.8675 173.405 17.6338 173.288 17.5084C173.171 17.3809 173.031 17.3278 172.869 17.3469Z" fill="white"/>
<path d="M182.934 15.9829C182.63 16.5502 182.216 17.0006 181.693 17.3321C181.173 17.6657 180.569 17.8314 179.887 17.8314C179.023 17.8314 178.345 17.6062 177.85 17.1579C177.355 16.7074 177.108 16.1338 177.108 15.4305C177.108 14.8738 177.27 14.4361 177.595 14.1216C177.918 13.8072 178.481 13.5862 179.28 13.4609C180.079 13.3355 181.173 13.2718 182.558 13.2718H183.395V14.026C183.395 14.7654 183.242 15.4177 182.934 15.9829ZM183.504 6.53852C182.745 6.17094 181.785 5.98609 180.614 5.98609C179.932 5.98609 179.197 6.07108 178.415 6.24318C177.633 6.41316 176.847 6.69787 176.054 7.09307C175.804 7.18231 175.627 7.32679 175.53 7.52439C175.43 7.72199 175.385 7.92384 175.394 8.13206C175.402 8.33816 175.466 8.52726 175.583 8.69936C175.7 8.86934 175.857 8.97557 176.054 9.02232C176.254 9.06694 176.486 9.02657 176.758 8.89908C177.44 8.55913 178.096 8.30629 178.727 8.14481C179.356 7.98333 179.968 7.90259 180.561 7.90259C181.585 7.90259 182.314 8.14056 182.745 8.6165C183.177 9.09456 183.395 9.86158 183.395 10.9239V11.708H182.503C180.561 11.708 179.014 11.827 177.865 12.0692C176.713 12.3135 175.893 12.713 175.406 13.2718C174.922 13.8306 174.678 14.5933 174.678 15.5643C174.678 16.3207 174.882 17.0049 175.287 17.6168C175.691 18.2287 176.258 18.7132 176.985 19.0722C177.714 19.4313 178.528 19.6119 179.428 19.6119C180.166 19.6119 180.827 19.4823 181.411 19.221C181.995 18.9618 182.486 18.5878 182.881 18.1013C183.123 17.8059 183.302 17.4638 183.448 17.1005V18.2903C183.448 18.7047 183.55 19.0191 183.759 19.2359C183.967 19.4504 184.247 19.5588 184.609 19.5588C184.987 19.5588 185.274 19.4504 185.473 19.2359C185.669 19.0191 185.769 18.7047 185.769 18.2903V11.1683C185.769 9.98057 185.58 9.0032 185.203 8.24042C184.825 7.47552 184.258 6.90822 183.504 6.53852Z" fill="white"/>
<path d="M195.94 12.22L193.433 11.708C192.784 11.5635 192.311 11.3383 192.015 11.0323C191.718 10.7263 191.571 10.3396 191.571 9.87221C191.571 9.26029 191.818 8.76523 192.311 8.38915C192.808 8.01095 193.539 7.82185 194.51 7.82185C195.049 7.82185 195.593 7.89834 196.144 8.05132C196.692 8.2043 197.227 8.45927 197.75 8.81834C197.982 8.94583 198.198 8.9947 198.398 8.9692C198.593 8.94158 198.757 8.86509 198.882 8.73973C199.008 8.61437 199.093 8.45502 199.137 8.26592C199.184 8.07894 199.176 7.88984 199.112 7.69862C199.048 7.50952 198.91 7.35441 198.693 7.22693C198.118 6.81473 197.474 6.50452 196.764 6.2963C196.052 6.0902 195.302 5.98609 194.51 5.98609C193.486 5.98609 192.576 6.14757 191.786 6.47265C190.993 6.79561 190.377 7.2588 189.937 7.86222C189.495 8.46564 189.277 9.16892 189.277 9.98057C189.277 10.8984 189.559 11.6485 190.126 12.2328C190.694 12.8171 191.533 13.2356 192.651 13.4864L195.158 14.0005C195.859 14.145 196.375 14.3554 196.711 14.6337C197.042 14.912 197.208 15.3051 197.208 15.8066C197.208 16.4036 196.957 16.8774 196.454 17.2386C195.95 17.5977 195.205 17.7783 194.214 17.7783C193.566 17.7783 192.916 17.6976 192.258 17.5361C191.601 17.3746 190.921 17.0941 190.22 16.6989C190.003 16.5736 189.803 16.5226 189.614 16.5502C189.425 16.5778 189.268 16.6628 189.141 16.8073C189.015 16.9497 188.939 17.1154 188.913 17.3045C188.886 17.4936 188.913 17.6827 188.994 17.8718C189.075 18.0609 189.213 18.2181 189.41 18.3456C190.131 18.8109 190.9 19.1402 191.718 19.3272C192.538 19.5184 193.352 19.6119 194.159 19.6119C195.778 19.6119 197.07 19.2571 198.033 18.5453C198.995 17.8357 199.475 16.8689 199.475 15.6451C199.475 14.7123 199.18 13.9687 198.585 13.4205C197.992 12.8702 197.11 12.4707 195.94 12.22Z" fill="white"/>
<path d="M206.111 8.37428C206.723 7.97058 207.46 7.76661 208.323 7.76661C209.117 7.76661 209.776 7.93871 210.307 8.28079C210.838 8.62075 211.242 9.12218 211.52 9.77659C211.758 10.3396 211.875 11.0238 211.909 11.7887H204.296C204.364 11.1683 204.483 10.584 204.708 10.0741C205.033 9.34528 205.499 8.7801 206.111 8.37428ZM213.76 13.1252C213.934 12.97 214.019 12.7512 214.019 12.4622C214.019 11.4551 213.887 10.5521 213.626 9.7511C213.367 8.95008 212.982 8.27017 212.481 7.71349C211.975 7.15469 211.367 6.72762 210.658 6.43228C209.946 6.13482 209.151 5.98609 208.269 5.98609C207.029 5.98609 205.928 6.27505 204.963 6.84873C204.001 7.42453 203.247 8.22555 202.698 9.24966C202.148 10.278 201.874 11.4721 201.874 12.8404C201.874 14.2258 202.152 15.4262 202.711 16.4418C203.27 17.4596 204.056 18.2415 205.072 18.7897C206.089 19.3378 207.307 19.6119 208.728 19.6119C209.483 19.6119 210.269 19.5014 211.089 19.2741C211.907 19.051 212.614 18.7302 213.209 18.318C213.46 18.1565 213.63 17.9674 213.721 17.7507C213.811 17.5361 213.838 17.3321 213.802 17.143C213.766 16.9539 213.675 16.7924 213.532 16.6586C213.388 16.5226 213.205 16.4525 212.978 16.4418C212.755 16.4333 212.508 16.5098 212.236 16.6713C211.68 17.0495 211.097 17.3087 210.496 17.4553C209.893 17.5977 209.304 17.6699 208.728 17.6699C207.271 17.6699 206.155 17.2556 205.384 16.4291C204.711 15.7088 204.349 14.672 204.26 13.3525H213.02C213.343 13.3525 213.59 13.276 213.76 13.1252Z" fill="white"/>
<path d="M223.814 5.95845C222.609 6.03069 221.611 6.34728 220.82 6.90395C220.2 7.33952 219.781 7.98331 219.471 8.73971V7.28215C219.471 6.86783 219.367 6.55762 219.161 6.35153C218.952 6.1433 218.661 6.04132 218.281 6.04132C217.905 6.04132 217.608 6.1433 217.391 6.35153C217.176 6.55762 217.068 6.86783 217.068 7.28215V18.2903C217.068 18.7047 217.176 19.0191 217.391 19.2358C217.608 19.4504 217.922 19.5588 218.336 19.5588C218.732 19.5588 219.033 19.4504 219.241 19.2358C219.448 19.0191 219.552 18.7047 219.552 18.2903V11.9778C219.552 10.8432 219.868 9.95293 220.508 9.30489C221.147 8.65685 222.061 8.27015 223.247 8.14479L223.733 8.11929C224.111 8.08317 224.39 7.95994 224.568 7.75384C224.749 7.54774 224.829 7.27365 224.812 6.93157C224.795 6.5725 224.696 6.3154 224.515 6.16242C224.337 6.00944 224.103 5.94145 223.814 5.95845Z" fill="white"/>
<path d="M238.033 6.04131C237.69 6.04131 237.425 6.11142 237.236 6.2559C237.047 6.40038 236.881 6.65323 236.739 7.0123L232.776 16.5353L228.911 7.0123C228.75 6.65323 228.58 6.40038 228.399 6.2559C228.221 6.11142 227.978 6.04131 227.67 6.04131C227.311 6.04131 227.029 6.12204 226.822 6.28352C226.614 6.445 226.493 6.65322 226.457 6.90394C226.421 7.15466 226.466 7.43512 226.593 7.73896L231.18 18.4263C231.359 18.8215 231.573 19.1083 231.826 19.2889C232.079 19.4695 232.374 19.5588 232.716 19.5588C233.076 19.5588 233.388 19.4695 233.649 19.2889C233.908 19.1083 234.121 18.8215 234.282 18.4263L238.897 7.71346C239.04 7.4245 239.093 7.15466 239.059 6.90394C239.023 6.65322 238.919 6.445 238.746 6.28352C238.576 6.12204 238.338 6.04131 238.033 6.04131Z" fill="white"/>
<path d="M242.915 0.319439C242.431 0.319439 242.048 0.440548 241.77 0.684891C241.489 0.927109 241.351 1.28194 241.351 1.7515C241.351 2.18282 241.489 2.52915 241.77 2.78836C242.048 3.04971 242.431 3.17931 242.915 3.17931C243.438 3.17931 243.829 3.04971 244.09 2.78836C244.351 2.52915 244.481 2.18282 244.481 1.7515C244.481 1.28194 244.351 0.927109 244.09 0.684891C243.829 0.440548 243.438 0.319439 242.915 0.319439Z" fill="white"/>
<path d="M242.915 6.0944C242.537 6.0944 242.242 6.20701 242.025 6.43223C241.81 6.65745 241.702 6.98466 241.702 7.41598V18.1819C241.702 18.5963 241.81 18.9192 242.025 19.1529C242.242 19.3888 242.537 19.5035 242.915 19.5035C243.329 19.5035 243.64 19.3888 243.848 19.1529C244.054 18.9192 244.158 18.5963 244.158 18.1819V7.41598C244.158 6.98466 244.05 6.65745 243.835 6.43223C243.618 6.20701 243.312 6.0944 242.915 6.0944Z" fill="white"/>
<path d="M250.889 9.21142C251.24 8.8056 251.671 8.49539 252.183 8.28079C252.697 8.06407 253.286 7.95571 253.953 7.95571C254.384 7.95571 254.839 8.02795 255.315 8.17243C255.791 8.31691 256.248 8.54851 256.679 8.87359C256.911 9.01807 257.132 9.07968 257.338 9.06056C257.546 9.04569 257.716 8.9692 257.85 8.83322C257.986 8.69936 258.077 8.53151 258.12 8.33391C258.166 8.13631 258.162 7.94296 258.109 7.75386C258.054 7.56476 257.928 7.39903 257.731 7.25455C257.138 6.80411 256.49 6.48115 255.787 6.28355C255.086 6.08595 254.42 5.98609 253.789 5.98609C252.784 5.98609 251.879 6.13907 251.078 6.44503C250.277 6.75099 249.599 7.19718 249.041 7.77936C248.484 8.36578 248.057 9.07119 247.759 9.89983C247.464 10.7263 247.313 11.6612 247.313 12.7045C247.313 14.1068 247.577 15.3285 248.097 16.3611C248.62 17.3958 249.364 18.1947 250.337 18.762C251.308 19.3272 252.457 19.6119 253.789 19.6119C254.42 19.6119 255.077 19.5121 255.759 19.3166C256.443 19.119 257.072 18.8024 257.65 18.3711C257.848 18.2457 257.977 18.0843 258.039 17.8867C258.105 17.6869 258.115 17.4936 258.081 17.3045C258.043 17.1154 257.958 16.9539 257.824 16.82C257.688 16.6841 257.523 16.6033 257.325 16.5778C257.127 16.5502 256.911 16.6076 256.679 16.7542C256.229 17.0771 255.77 17.3045 255.3 17.4405C254.835 17.5743 254.384 17.6444 253.953 17.6444C252.638 17.6444 251.622 17.2067 250.904 16.3335C250.184 15.4623 249.825 14.2619 249.825 12.7321C249.825 11.9587 249.914 11.2788 250.095 10.6945C250.273 10.1123 250.539 9.61511 250.889 9.21142Z" fill="white"/>
<path d="M263.829 8.37428C264.439 7.97058 265.178 7.76661 266.041 7.76661C266.833 7.76661 267.494 7.93871 268.025 8.28079C268.556 8.62075 268.96 9.12218 269.238 9.77659C269.476 10.3396 269.591 11.0238 269.627 11.7887H262.014C262.082 11.1683 262.199 10.584 262.426 10.0741C262.749 9.34528 263.217 8.7801 263.829 8.37428ZM271.478 13.1252C271.65 12.97 271.735 12.7512 271.735 12.4622C271.735 11.4551 271.603 10.5521 271.342 9.7511C271.083 8.95008 270.698 8.27017 270.197 7.71349C269.693 7.15469 269.085 6.72762 268.376 6.43228C267.664 6.13482 266.869 5.98609 265.987 5.98609C264.747 5.98609 263.644 6.27505 262.681 6.84873C261.719 7.42453 260.962 8.22555 260.416 9.24966C259.866 10.278 259.592 11.4721 259.592 12.8404C259.592 14.2258 259.87 15.4262 260.427 16.4418C260.986 17.4596 261.772 18.2415 262.79 18.7897C263.805 19.3378 265.023 19.6119 266.444 19.6119C267.201 19.6119 267.987 19.5014 268.807 19.2741C269.623 19.051 270.33 18.7302 270.925 18.318C271.176 18.1565 271.346 17.9674 271.437 17.7507C271.527 17.5361 271.554 17.3321 271.518 17.143C271.482 16.9539 271.393 16.7924 271.248 16.6586C271.104 16.5226 270.921 16.4525 270.694 16.4418C270.471 16.4333 270.224 16.5098 269.954 16.6713C269.396 17.0495 268.815 17.3087 268.212 17.4553C267.609 17.5977 267.022 17.6699 266.444 17.6699C264.989 17.6699 263.871 17.2556 263.1 16.4291C262.426 15.7088 262.065 14.672 261.978 13.3525H270.736C271.059 13.3525 271.306 13.276 271.478 13.1252Z" fill="white"/>
<path d="M283.742 13.4205C283.149 12.8702 282.267 12.4707 281.096 12.22L278.587 11.708C277.941 11.5635 277.467 11.3383 277.17 11.0323C276.875 10.7263 276.726 10.3396 276.726 9.87221C276.726 9.26029 276.97 8.76523 277.467 8.38915C277.962 8.01095 278.695 7.82185 279.666 7.82185C280.206 7.82185 280.75 7.89834 281.3 8.05132C281.846 8.2043 282.382 8.45927 282.904 8.81834C283.138 8.94583 283.353 8.9947 283.553 8.9692C283.75 8.94158 283.912 8.86509 284.039 8.73973C284.162 8.61437 284.247 8.45502 284.294 8.26592C284.339 8.07894 284.33 7.88984 284.266 7.69862C284.205 7.50952 284.065 7.35441 283.85 7.22693C283.272 6.81473 282.63 6.50452 281.921 6.2963C281.209 6.0902 280.457 5.98609 279.666 5.98609C278.642 5.98609 277.733 6.14757 276.943 6.47265C276.15 6.79561 275.532 7.2588 275.094 7.86222C274.652 8.46564 274.429 9.16892 274.429 9.98057C274.429 10.8984 274.716 11.6485 275.283 12.2328C275.848 12.8171 276.69 13.2356 277.803 13.4864L280.314 14.0005C281.016 14.145 281.532 14.3554 281.866 14.6337C282.197 14.912 282.365 15.3051 282.365 15.8066C282.365 16.4036 282.112 16.8774 281.608 17.2386C281.107 17.5977 280.359 17.7783 279.369 17.7783C278.723 17.7783 278.069 17.6976 277.41 17.5361C276.758 17.3746 276.078 17.0941 275.377 16.6989C275.16 16.5736 274.958 16.5226 274.769 16.5502C274.58 16.5778 274.423 16.6628 274.297 16.8073C274.168 16.9497 274.095 17.1154 274.068 17.3045C274.042 17.4936 274.068 17.6827 274.149 17.8718C274.227 18.0609 274.369 18.2181 274.567 18.3456C275.285 18.8109 276.054 19.1402 276.875 19.3272C277.693 19.5184 278.506 19.6119 279.316 19.6119C280.935 19.6119 282.225 19.2571 283.187 18.5453C284.15 17.8357 284.632 16.8689 284.632 15.6451C284.632 14.7123 284.334 13.9687 283.742 13.4205Z" fill="white"/>
<path d="M7.8126 2.55675C4.53628 2.55675 2.90024 3.31316 2.90024 4.82808V14.8716C2.90024 16.633 4.69563 17.5127 8.28854 17.5127H19.0906C19.8109 17.5127 20.1721 17.9015 20.1721 18.6813C20.1721 19.4759 19.8109 19.8711 19.0906 19.8711H7.89971C2.63253 19.8711 0 18.2266 0 14.9375V4.82808C0 1.74086 2.58154 0.19619 7.74886 0.19619H11.8389C12.5592 0.19619 12.9204 0.587138 12.9204 1.36479C12.9204 2.15943 12.5592 2.55675 11.8389 2.55675H7.8126Z" fill="white"/>
<path d="M36.4496 3.16232C36.4496 3.16232 25.7134 19.3166 25.6476 19.3952C25.5838 19.4759 25.3586 19.7628 25.1716 19.8499C24.9847 19.937 24.7679 19.9795 24.5236 19.9795C24.1624 19.9795 23.8224 19.8605 23.5058 19.6225C23.1871 19.3846 23.0299 19.0701 23.0299 18.6813C23.0299 18.5814 23.0427 18.4646 23.0724 18.3349C23.1021 18.2053 23.2466 17.9674 23.2466 17.9674L34.5438 1.06309C34.7754 0.716763 35.0537 0.453298 35.3767 0.272697C35.7017 0.0920953 36.046 0.000732422 36.405 0.000732422C36.7386 0.000732422 37.0722 0.0878459 37.4121 0.262073C37.7521 0.434175 38.0432 0.70189 38.2897 1.06309C38.2897 1.06309 49.4721 17.6975 49.6102 17.9249C49.7462 18.1501 49.8906 18.4731 49.8906 18.7025C49.8906 19.0786 49.7355 19.3824 49.4253 19.6119C49.1151 19.8435 48.7794 19.9582 48.4182 19.9582C48.1887 19.9582 47.9635 19.9072 47.7489 19.8074C47.5322 19.7054 47.3303 19.4781 47.2284 19.3527C47.1264 19.2252 36.4496 3.16232 36.4496 3.16232Z" fill="white"/>
<path d="M71.5564 5.0873C71.5564 3.40027 69.9629 2.55675 66.7737 2.55675H52.4021C51.5798 2.55675 51.1676 2.18068 51.1676 1.43065C51.1676 0.608386 51.5798 0.19619 52.4021 0.19619H66.319C71.7455 0.19619 74.4588 1.88534 74.4588 5.26152V7.382C74.4588 10.499 71.9601 12.0585 66.9691 12.0585H59.4795L72.2066 17.5127C72.4382 17.6147 72.6039 17.757 72.7038 17.9461C72.8058 18.1331 72.8568 18.3286 72.8568 18.5304C72.8568 18.8767 72.7378 19.2039 72.4998 19.5142C72.2618 19.8244 71.9601 19.9795 71.601 19.9795C71.4417 19.9795 71.276 19.937 71.1017 19.8499L54.8476 12.3602C54.6011 12.2604 54.4142 12.101 54.2846 11.8843C54.155 11.6676 54.0891 11.4381 54.0891 11.1916C54.0891 10.8325 54.2272 10.499 54.5013 10.1973C54.7754 9.89342 55.1642 9.74256 55.6699 9.74256H67.2496C70.1222 9.74256 71.5564 9.0414 71.5564 7.64334V5.0873Z" fill="white"/>
<path d="M91.4055 3.16231L80.6055 19.3952C80.4759 19.6119 80.3165 19.7628 80.1296 19.8499C79.9405 19.937 79.7237 19.9795 79.4794 19.9795C79.1182 19.9795 78.7782 19.8605 78.4617 19.6225C78.1451 19.3846 77.9857 19.0701 77.9857 18.6813C77.9857 18.5814 78.0006 18.4646 78.0282 18.3349C78.058 18.2053 78.1175 18.1012 78.2194 17.9482L89.5017 1.06309C89.7312 0.716756 90.0095 0.45329 90.3346 0.272689C90.6597 0.0920878 91.0018 0.00284958 91.363 0.00284958C91.6944 0.00284958 92.0301 0.0878384 92.368 0.262066C92.7079 0.434168 92.999 0.701883 93.2455 1.06309C93.2455 1.06309 104.443 17.7251 104.568 17.9206C104.674 18.0885 104.846 18.473 104.846 18.7025C104.846 19.0786 104.691 19.3824 104.381 19.6119C104.071 19.8435 103.735 19.9582 103.376 19.9582C103.145 19.9582 102.921 19.9072 102.705 19.8074C102.488 19.7054 102.303 19.4908 102.184 19.3314C102.027 19.119 91.4055 3.16231 91.4055 3.16231Z" fill="#D2D928"/>
<path d="M115.064 18.7684C115.064 19.5906 114.58 20.0007 113.613 20.0007C112.631 20.0007 112.141 19.5906 112.141 18.7684V5.02356C112.141 4.05681 112.625 3.57237 113.592 3.57237C114.573 3.57237 115.064 4.05681 115.064 5.02356V18.7684ZM104.069 2.55675C103.346 2.55675 102.985 2.14456 102.985 1.32229C102.985 0.572265 103.346 0.19619 104.069 0.19619H123.159C123.852 0.19619 124.198 0.572265 124.198 1.32229C124.198 2.14456 123.852 2.55675 123.159 2.55675H104.069Z" fill="white"/>
</g>
<defs>
<clipPath id="clip0_461_9075">
<rect width="284.632" height="20" fill="white" transform="translate(0 0.000732422)"/>
</clipPath>
</defs>
</svg>
